<svg width="66" height="66" viewBox="0 0 66 66" fill="none" xmlns="http://www.w3.org/2000/svg">
<g clip-path="url(#clip0_84_2885)">
<path d="M45.7639 19.5027C42.4361 16.2586 37.9033 14.4719 33.0007 14.4719C28.098 14.4719 23.5652 16.2586 20.2374 19.5027C16.9103 22.7462 15.0781 27.1562 15.0781 31.9205C15.0781 37.0053 17.3389 41.8571 21.2809 45.2322C23.3465 47.0005 24.6502 49.4461 25.0856 52.3389C24.0261 52.9606 23.3136 54.1049 23.3136 55.4117V56.4811C23.3136 58.1061 24.4153 59.4801 25.9167 59.9097C25.7163 60.3538 25.6039 60.845 25.6039 61.3621V62.4315C25.6039 64.3992 27.2185 66.0002 29.203 66.0002H36.7985C38.783 66.0002 40.3976 64.3992 40.3976 62.4315V61.3621C40.3976 60.845 40.2852 60.3536 40.0848 59.9097C41.5862 59.4801 42.6878 58.1062 42.6878 56.4811V55.4117C42.6878 54.1049 41.9754 52.9606 40.9159 52.3389C41.3513 49.4461 42.6551 47.0005 44.7206 45.2322C48.6625 41.8573 50.9233 37.0054 50.9233 31.9205C50.9233 27.1562 49.091 22.7462 45.7639 19.5027ZM38.1412 62.4314C38.1412 63.155 37.5389 63.7436 36.7985 63.7436H29.2028C28.4624 63.7436 27.8601 63.155 27.8601 62.4314V61.362C27.8601 60.6384 28.4624 60.0496 29.2028 60.0496H36.7983C37.5387 60.0496 38.141 60.6382 38.141 61.362L38.1412 62.4314ZM40.4313 56.4809C40.4313 57.2045 39.829 57.7932 39.0886 57.7932H36.7983H29.2028H26.9126C26.1722 57.7932 25.5699 57.2045 25.5699 56.4809V55.4115C25.5699 54.6879 26.1722 54.0993 26.9126 54.0993H39.0886C39.829 54.0993 40.4313 54.6879 40.4313 55.4115V56.4809ZM29.5017 37.6887H27.2639C26.3589 37.6887 25.6228 36.9676 25.6228 36.0814C25.6228 35.1952 26.3589 34.474 27.2639 34.474H27.8605C28.7655 34.474 29.5017 35.1951 29.5017 36.0814V37.6887ZM34.324 51.8429H31.7581V39.9451H34.324V51.8429ZM43.2531 43.518C40.8047 45.6141 39.2498 48.4767 38.7099 51.8429H36.5803V39.9451H38.8549C41.004 39.9451 42.7524 38.2118 42.7524 36.0814C42.7524 33.951 41.004 32.2176 38.8549 32.2176H38.2214C36.0723 32.2176 34.3239 33.951 34.3239 36.0814V37.6887H31.7579V36.0814C31.7579 33.951 30.0095 32.2176 27.8604 32.2176H27.2637C25.1146 32.2176 23.3662 33.951 23.3662 36.0814C23.3662 38.2119 25.1146 39.9451 27.2637 39.9451H29.5015V51.8429H27.2911C26.7512 48.4767 25.1963 45.6141 22.7479 43.518C19.3075 40.5724 17.3341 36.3451 17.3341 31.9205C17.3341 23.2595 24.0691 16.7283 33.0004 16.7283C41.9317 16.7283 48.6666 23.2595 48.6666 31.9205C48.6669 36.3451 46.6937 40.5722 43.2531 43.518ZM36.5805 37.6887V36.0814C36.5805 35.1951 37.3166 34.474 38.2216 34.474H38.8551C39.76 34.474 40.4962 35.1951 40.4962 36.0814C40.4962 36.9678 39.76 37.6887 38.8551 37.6887H36.5805Z" fill="black"/>
<path d="M51.0686 57.0498C50.2315 57.0498 49.4196 56.7332 48.7939 56.1092L45.6213 52.9453L47.2146 51.3476L50.3872 54.5115C50.8179 54.9409 51.3944 54.815 51.7844 54.5639L55.6734 50.8149C56.0921 50.3914 55.971 49.8276 55.7249 49.4427L52.6275 46.3539C52.2423 45.9697 52.1861 45.3654 52.4939 44.9168C54.1821 42.4562 55.4018 39.5884 56.0212 36.6237C56.1305 36.1007 56.5914 35.7262 57.1256 35.7262H61.5385C61.9115 35.6613 62.4748 35.3939 62.4748 34.7451V29.2902C62.4262 29.0104 62.2194 28.359 61.3558 28.359H56.8611C56.3099 28.359 55.8393 27.9606 55.7483 27.4168C55.2802 24.6159 54.1039 21.7103 52.3468 19.0142C52.0553 18.5669 52.1172 17.9764 52.4953 17.5993L55.6679 14.4354C56.0956 14.0088 55.9706 13.4373 55.7204 13.0508L51.9611 9.17259C51.5338 8.75233 50.9647 8.87404 50.5766 9.12126L47.4791 12.2101C47.0955 12.5927 46.4941 12.6484 46.0466 12.3433C43.5786 10.6593 40.7023 9.44251 37.7283 8.82468C37.2048 8.71595 36.8296 8.25465 36.8296 7.72003V3.23753C36.8296 2.65072 36.3876 2.25641 35.9748 2.25641H30.5041C30.1311 2.32114 29.5679 2.58867 29.5679 3.23753V7.8516C29.5679 8.4033 29.1689 8.87404 28.6247 8.96458C25.815 9.43165 22.9006 10.605 20.1964 12.3578C19.7502 12.647 19.1626 12.5854 18.7862 12.21L15.6135 9.04609C15.1828 8.61681 14.6063 8.7426 14.2164 8.99363L10.3272 12.7428C9.90862 13.1662 10.0299 13.73 10.276 14.1147L13.3733 17.2036C13.7586 17.5877 13.8147 18.1922 13.507 18.6406C11.8188 21.1012 10.5991 23.969 9.9797 26.9339C9.8704 27.4568 9.40953 27.8314 8.87533 27.8314H4.46235C4.08934 27.8961 3.52594 28.1637 3.52594 28.8125V34.2671C3.5911 34.6384 3.85989 35.1986 4.51284 35.1986H9.00733C9.5586 35.1986 10.0292 35.597 10.1202 36.1408C10.5882 38.9418 11.7645 41.8474 13.5218 44.5434C13.8133 44.9907 13.7514 45.5812 13.3733 45.9583L10.2007 49.1222C9.77295 49.5488 9.89804 50.1202 10.1484 50.5068L13.9077 54.3851C14.3351 54.8052 14.904 54.6835 15.2921 54.4365L18.3896 51.3474L19.9829 52.9451L16.8103 56.109C16.7663 56.1529 16.7189 56.1931 16.6683 56.229C15.2577 57.2338 13.465 57.1303 12.3087 55.9772C12.3042 55.9727 12.2999 55.9681 12.2953 55.9635L8.4617 52.0089C8.42292 51.9688 8.3871 51.9259 8.35452 51.8807C7.34492 50.4711 7.44885 48.6798 8.60724 47.5245L11.142 44.9968C9.66916 42.5649 8.6219 39.9895 8.07515 37.455H4.51284C2.85395 37.455 1.49362 36.2079 1.27827 34.4897C1.27249 34.4431 1.26953 34.3963 1.26953 34.3493V28.8125C1.26953 27.1563 2.51916 25.7984 4.24108 25.5836C4.28734 25.5778 4.33402 25.5749 4.3807 25.5749H7.97572C8.62585 22.9498 9.70258 20.4146 11.1285 18.1514L8.60738 15.6372C8.56324 15.5933 8.52304 15.5458 8.4868 15.4953C7.4772 14.0858 7.58113 12.2945 8.73952 11.1393C8.74403 11.1348 8.74854 11.1304 8.7532 11.1259L12.719 7.30287C12.7592 7.26423 12.802 7.22855 12.8475 7.19626C14.2579 6.19145 16.0507 6.29496 17.207 7.44827L19.745 9.97926C22.1849 8.50892 24.7691 7.46378 27.3118 6.91829V3.23753C27.3118 1.58118 28.5614 0.223244 30.2833 0.00874359C30.3293 0.00296154 30.376 0 30.4225 0H35.9747C37.6901 0 39.0858 1.45228 39.0858 3.23753V6.81915C41.7198 7.46773 44.2632 8.54235 46.5337 9.96586L49.0583 7.44827C49.1023 7.40441 49.1497 7.36422 49.2003 7.32826C50.6107 6.32345 52.4035 6.42696 53.5599 7.58013C53.5644 7.58464 53.5689 7.58915 53.5733 7.59381L57.4069 11.5487C57.4457 11.5888 57.4815 11.6317 57.5141 11.6771C58.5237 13.0866 58.4196 14.8779 57.2614 16.0331L54.7267 18.5608C56.1994 20.9927 57.2467 23.5683 57.7936 26.1026H61.3559C63.1193 26.1026 64.5037 27.3219 64.7226 29.0679C64.7284 29.1145 64.7314 29.1614 64.7314 29.2082V34.7451C64.7314 36.4013 63.4817 37.7592 61.7598 37.974C61.7135 37.9798 61.6669 37.9827 61.6202 37.9827H58.0252C57.375 40.6078 56.2983 43.143 54.8724 45.4062L57.3935 47.9204C57.4376 47.9642 57.4778 48.0118 57.5141 48.0622C58.5237 49.4718 58.4198 51.2631 57.2614 52.4184C57.2569 52.4229 57.2523 52.4273 57.2477 52.4318L53.2819 56.2548C53.2417 56.2935 53.1988 56.3292 53.1534 56.3615C52.5061 56.8221 51.7783 57.0498 51.0686 57.0498Z" fill="black"/>
</g>
<defs>
<clipPath id="clip0_84_2885">
<rect width="66" height="66" fill="white"/>
</clipPath>
</defs>
</svg>
