<svg width="84" height="84" viewBox="0 0 84 84" fill="none" xmlns="http://www.w3.org/2000/svg">
<path d="M56.8984 33.22H62.7268L58.0696 43.8145" stroke="black" stroke-width="2" stroke-miterlimit="10" stroke-linecap="round" stroke-linejoin="round"/>
<path d="M45.9771 40.6878H39.3242C39.3242 40.6878 42.8466 34.303 43.428 33.5898C44.0158 32.8686 44.5723 33.3184 44.6254 33.9546C44.6784 34.5907 44.5989 43.8146 44.5989 43.8146" stroke="black" stroke-width="2" stroke-miterlimit="10" stroke-linecap="round" stroke-linejoin="round"/>
<path d="M37.6032 43.8938C37.6032 43.8938 32.4486 43.9585 32.2044 43.8772C31.9603 43.7958 32.5958 43.3658 35.9754 38.5372C36.6065 37.6354 36.954 36.8746 37.1017 36.2372L37.1541 35.8274C37.1541 34.3302 35.9404 33.1165 34.4432 33.1165C33.1257 33.1165 32.0278 34.0562 31.7832 35.302" stroke="black" stroke-width="2" stroke-miterlimit="10" stroke-linecap="round" stroke-linejoin="round"/>
<path d="M53.2725 33.22L49.0176 43.9181" stroke="black" stroke-width="2" stroke-miterlimit="10" stroke-linecap="round" stroke-linejoin="round"/>
<path d="M13.1521 44.8544C11.7074 41.6046 10.8073 38.1821 11.1119 34.9627C11.1878 34.1619 11.5585 33.4177 12.1273 32.849L16.8199 28.1564C18.1627 26.8136 20.3844 26.9753 21.5186 28.4984L26.8191 35.5445C27.3855 36.2976 27.3026 37.3545 26.6254 38.0099L23.1919 41.3326C22.7703 41.7405 22.6906 42.3872 23.0005 42.8854V42.8855C27.5702 50.2324 33.7682 56.4304 41.1151 61.0001C41.6131 61.3099 42.2598 61.2302 42.6678 60.8087L45.9905 57.3752C46.6458 56.6981 47.7029 56.6151 48.4559 57.1815L55.5021 62.482C57.0252 63.6162 57.1868 65.8379 55.8441 67.1806L51.1514 71.8733C50.5622 72.4624 49.7839 72.8233 48.954 72.8964C37.6449 73.8923 23.8766 60.1241 23.8766 60.1241C23.8766 60.1241 18.8686 55.1161 15.1117 48.6599" stroke="black" stroke-width="2" stroke-miterlimit="10" stroke-linecap="round" stroke-linejoin="round"/>
<path d="M29.957 21.1653C39.0993 12.97 53.162 13.2657 61.949 22.0527C71.0422 31.1459 71.0422 45.8887 61.949 54.9819C59.4143 57.5166 56.4407 59.3447 53.2727 60.4663" stroke="black" stroke-width="2" stroke-miterlimit="10" stroke-linecap="round" stroke-linejoin="round"/>
<path d="M23.5059 30.8078C24.3335 28.443 25.5541 26.185 27.1677 24.1355" stroke="black" stroke-width="2" stroke-miterlimit="10" stroke-linecap="round" stroke-linejoin="round"/>
<path d="M66.1515 20.4299C75.611 31.2181 75.1948 47.6457 64.9029 57.9375C62.4656 60.3748 59.6841 62.2583 56.7148 63.5878" stroke="black" stroke-width="2" stroke-miterlimit="10" stroke-linecap="round" stroke-linejoin="round"/>
<path d="M20.4297 27.2443C21.7582 24.2905 23.6356 21.5231 26.0619 19.0969C36.2359 8.92284 52.4064 8.39966 63.1972 17.5276" stroke="black" stroke-width="2" stroke-miterlimit="10" stroke-linecap="round" stroke-linejoin="round"/>
</svg>
