<svg width="35" height="35" viewBox="0 0 35 35" fill="none" xmlns="http://www.w3.org/2000/svg">
<g clip-path="url(#clip0_64_196)">
<path d="M23.2977 0H11.6523C9.59711 0.00233043 7.93173 1.66772 7.92969 3.72287V31.2773C7.93173 33.3325 9.59711 34.9979 11.6523 34.9999H23.2977C25.3529 34.9979 27.0183 33.3325 27.0206 31.2773V3.72287C27.0183 1.66772 25.3529 0.00233043 23.2977 0ZM25.4295 31.2773C25.4283 32.4542 24.4746 33.4079 23.2977 33.4091H11.6523C10.4754 33.4079 9.52166 32.4542 9.5205 31.2773V3.72287C9.52166 2.54571 10.4754 1.59198 11.6523 1.59081H23.2977C24.4746 1.59198 25.4283 2.54571 25.4295 3.72287V31.2773Z" fill="black"/>
<path d="M19.8612 3.18213H15.0885C14.6492 3.18213 14.293 3.5381 14.293 3.97739C14.293 4.41668 14.6492 4.77294 15.0885 4.77294H19.8612C20.3005 4.77294 20.6565 4.41668 20.6565 3.97739C20.6565 3.5381 20.3005 3.18213 19.8612 3.18213Z" fill="black"/>
<path d="M19.0657 30.227C19.0657 31.1059 18.3535 31.8181 17.4749 31.8181C16.596 31.8181 15.8838 31.1059 15.8838 30.227C15.8838 29.3485 16.596 28.6362 17.4749 28.6362C18.3535 28.6362 19.0657 29.3485 19.0657 30.227Z" fill="black"/>
</g>
<defs>
<clipPath id="clip0_64_196">
<rect width="35" height="35" fill="white"/>
</clipPath>
</defs>
</svg>
