<svg width="74" height="74" viewBox="0 0 74 74" fill="none" xmlns="http://www.w3.org/2000/svg">
<path d="M40.4688 9.25H33.5312C32.893 9.25 32.375 8.732 32.375 8.09375C32.375 7.4555 32.893 6.9375 33.5312 6.9375H40.4688C41.107 6.9375 41.625 7.4555 41.625 8.09375C41.625 8.732 41.107 9.25 40.4688 9.25Z" fill="black"/>
<path d="M49.7188 71.6875H24.2812C21.0923 71.6875 18.5 69.0929 18.5 65.9062V26.5938C18.5 25.9555 19.018 25.4375 19.6562 25.4375C20.2945 25.4375 20.8125 25.9555 20.8125 26.5938V65.9062C20.8125 67.8187 22.3688 69.375 24.2812 69.375H49.7188C51.6312 69.375 53.1875 67.8187 53.1875 65.9062V26.5938C53.1875 25.9555 53.7055 25.4375 54.3438 25.4375C54.982 25.4375 55.5 25.9555 55.5 26.5938V65.9062C55.5 69.0929 52.9077 71.6875 49.7188 71.6875Z" fill="black"/>
<path d="M54.3438 34.6875C53.7055 34.6875 53.1875 34.1695 53.1875 33.5312V8.09375C53.1875 6.18131 51.6312 4.625 49.7188 4.625H24.2812C22.3688 4.625 20.8125 6.18131 20.8125 8.09375V33.5312C20.8125 34.1695 20.2945 34.6875 19.6562 34.6875C19.018 34.6875 18.5 34.1695 18.5 33.5312V8.09375C18.5 4.90712 21.0923 2.3125 24.2812 2.3125H49.7188C52.9077 2.3125 55.5 4.90712 55.5 8.09375V33.5312C55.5 34.1695 54.982 34.6875 54.3438 34.6875Z" fill="black"/>
<path d="M61.2812 13.9906C60.643 13.9906 60.125 13.5882 60.125 12.95V12.7188C60.125 12.0805 60.643 11.5625 61.2812 11.5625C61.9195 11.5625 62.4375 12.0805 62.4375 12.7188C62.4375 13.357 61.9195 13.9906 61.2812 13.9906Z" fill="black"/>
<path d="M61.2812 18.6156C60.643 18.6156 60.125 18.2132 60.125 17.575V17.3438C60.125 16.7055 60.643 16.1875 61.2812 16.1875C61.9195 16.1875 62.4375 16.7055 62.4375 17.3438C62.4375 17.982 61.9195 18.6156 61.2812 18.6156Z" fill="black"/>
<path d="M61.2812 23.2406C60.643 23.2406 60.125 22.8383 60.125 22.2V21.9688C60.125 21.3305 60.643 20.8125 61.2812 20.8125C61.9195 20.8125 62.4375 21.3305 62.4375 21.9688C62.4375 22.607 61.9195 23.2406 61.2812 23.2406Z" fill="black"/>
<path d="M12.7188 53.0719C12.0805 53.0719 11.5625 52.6695 11.5625 52.0313V51.8C11.5625 51.1618 12.0805 50.6438 12.7188 50.6438C13.357 50.6438 13.875 51.1618 13.875 51.8C13.875 52.4383 13.357 53.0719 12.7188 53.0719Z" fill="black"/>
<path d="M12.7188 57.6969C12.0805 57.6969 11.5625 57.2945 11.5625 56.6563V56.425C11.5625 55.7868 12.0805 55.2688 12.7188 55.2688C13.357 55.2688 13.875 55.7868 13.875 56.425C13.875 57.0633 13.357 57.6969 12.7188 57.6969Z" fill="black"/>
<path d="M12.7188 62.3219C12.0805 62.3219 11.5625 61.9195 11.5625 61.2813V61.05C11.5625 60.4118 12.0805 59.8938 12.7188 59.8938C13.357 59.8938 13.875 60.4118 13.875 61.05C13.875 61.6883 13.357 62.3219 12.7188 62.3219Z" fill="black"/>
<path d="M57.4448 62.4375C57.3639 62.4375 57.2806 62.4306 57.1997 62.4121C56.5753 62.2779 56.1799 61.6628 56.314 61.0384L57.0771 57.5003C57.1696 57.0656 57.5049 56.7256 57.9351 56.6216C59.0266 56.3579 60.0903 55.9139 61.0963 55.3011C61.4686 55.0699 61.9472 55.0768 62.3196 55.3127L64.6089 56.7765L66.0265 55.3474L64.5627 53.0765C64.3222 52.7042 64.3176 52.2255 64.5465 51.8486C65.1593 50.8426 65.6033 49.7789 65.8646 48.6874C65.9687 48.2573 66.3063 47.9242 66.7388 47.8271L69.375 47.2421V45.2603L66.7411 44.6752C66.3086 44.5781 65.971 44.2451 65.8669 43.8149C65.6056 42.7234 65.1593 41.6597 64.5488 40.6537C64.3176 40.2768 64.3222 39.8004 64.5627 39.4281L66.0288 37.1364L64.6136 35.7212L62.3219 37.1873C61.9496 37.4255 61.4732 37.4301 61.0986 37.1989C60.0903 36.5861 59.0266 36.1421 57.9374 35.8784C57.5049 35.7744 57.1719 35.4321 57.0794 34.9997L56.5106 32.375H55.5C54.8618 32.375 54.3438 31.857 54.3438 31.2188C54.3438 30.5805 54.8618 30.0625 55.5 30.0625H57.4425C57.9859 30.0625 58.4577 30.4441 58.571 30.9759L59.1884 33.8273C60.0348 34.0839 60.865 34.4308 61.6651 34.8633L64.1487 33.2746C64.6066 32.9832 65.2033 33.0479 65.5894 33.4318L68.3205 36.1606C68.7044 36.5444 68.7691 37.1434 68.4754 37.6013L66.8867 40.0849C67.3192 40.8873 67.6661 41.7175 67.9227 42.5662L70.7787 43.1998C71.3106 43.3177 71.6875 43.7895 71.6875 44.3306V48.1694C71.6875 48.7105 71.3106 49.1823 70.781 49.2979L67.9251 49.9315C67.6684 50.7802 67.3215 51.6104 66.8891 52.4105L68.4754 54.871C68.7714 55.3266 68.709 55.9278 68.3251 56.3117L65.5941 59.0636C65.2079 59.4498 64.6089 59.5145 64.1511 59.2231L61.6674 57.6344C60.865 58.0669 60.0371 58.4138 59.1908 58.6704L58.5733 61.5217C58.4554 62.0675 57.9744 62.4375 57.4448 62.4375Z" fill="black"/>
<path d="M58.7174 52.2116C58.3474 52.2116 57.982 52.0313 57.7577 51.7006C57.4016 51.171 57.5426 50.4518 58.0745 50.0957C59.358 49.2308 60.1257 47.7924 60.1257 46.25C60.1257 43.6993 58.0514 41.625 55.5007 41.625C55.1862 41.625 54.874 41.6574 54.5757 41.7175C53.956 41.8424 53.3385 41.4446 53.209 40.8156C53.0818 40.1889 53.4842 39.5784 54.1109 39.4512C54.5641 39.3611 55.0313 39.3125 55.5007 39.3125C59.3256 39.3125 62.4382 42.4251 62.4382 46.25C62.4382 48.5648 61.2889 50.7201 59.3603 52.0151C59.1637 52.1469 58.9394 52.2116 58.7174 52.2116Z" fill="black"/>
<path d="M18.5 34.6875C14.6751 34.6875 11.5625 31.5749 11.5625 27.75C11.5625 25.426 12.7187 23.2684 14.6566 21.9734C15.1816 21.6219 15.9031 21.7607 16.2592 22.2948C16.613 22.8244 16.4696 23.5436 15.9378 23.8974C14.6474 24.7623 13.875 26.2007 13.875 27.75C13.875 30.3007 15.9493 32.375 18.5 32.375C18.8099 32.375 19.1151 32.345 19.4065 32.2849C20.0193 32.1577 20.6414 32.5623 20.7686 33.1913C20.8958 33.818 20.4887 34.4262 19.8621 34.5511C19.4204 34.6413 18.9671 34.6875 18.5 34.6875Z" fill="black"/>
<path d="M18.5 43.9376H16.5575C16.0141 43.9376 15.5423 43.556 15.429 43.0242L14.8116 40.1729C13.9652 39.9162 13.135 39.5693 12.3349 39.1369L9.85125 40.7255C9.39106 41.0169 8.79675 40.9545 8.41056 40.5683L5.6795 37.8396C5.29563 37.4557 5.23087 36.8567 5.52456 36.3989L7.11325 33.9152C6.68081 33.1128 6.33394 32.2826 6.07725 31.4339L3.22131 30.8003C2.68944 30.6824 2.3125 30.2106 2.3125 29.6695V25.8307C2.3125 25.2896 2.68944 24.8179 3.219 24.7022L6.07494 24.0686C6.33162 23.2199 6.6785 22.3897 7.11094 21.5896L5.52688 19.1268C5.23088 18.6712 5.29331 18.07 5.67719 17.6861L8.40825 14.9342C8.78981 14.5457 9.39106 14.481 9.85125 14.7747L12.3349 16.3634C13.1373 15.9309 13.9652 15.584 14.8116 15.3274L15.429 12.476C15.5631 11.8494 16.1898 11.4516 16.8026 11.5904C17.427 11.7245 17.8224 12.3396 17.6883 12.964L16.9252 16.5021C16.8327 16.9369 16.4974 17.2768 16.0673 17.3809C14.9757 17.6445 13.912 18.0885 12.9037 18.7013C12.5291 18.9325 12.0528 18.9256 11.6804 18.6897L9.39106 17.2259L7.97119 18.6551L9.435 20.9259C9.67781 21.2982 9.68244 21.7769 9.45119 22.1539C8.83837 23.1598 8.39437 24.2235 8.13306 25.315C8.029 25.7452 7.69137 26.0782 7.25894 26.1753L4.625 26.758V28.7399L7.25894 29.3249C7.69137 29.422 8.029 29.7551 8.13306 30.1852C8.39437 31.2767 8.84069 32.3404 9.45119 33.3464C9.68244 33.7233 9.67781 34.1997 9.43731 34.572L7.97119 36.8614L9.38644 38.2766L11.6781 36.8105C12.0504 36.5746 12.5291 36.57 12.9014 36.7989C13.9097 37.4117 14.9734 37.8557 16.0626 38.1194C16.4951 38.2234 16.8281 38.5657 16.9206 38.9981L17.4894 41.6251H18.5C19.1383 41.6251 19.6562 42.1431 19.6562 42.7814C19.6562 43.4196 19.1383 43.9376 18.5 43.9376Z" fill="black"/>
<path d="M35.844 42.7813C35.7515 42.7813 35.659 42.7697 35.5642 42.7466C34.9421 42.5916 34.5675 41.9649 34.7224 41.3452L37.0349 32.0952C37.1876 31.4731 37.805 31.0985 38.4363 31.2534C39.0584 31.4084 39.433 32.0351 39.2781 32.6548L36.9656 41.9048C36.8361 42.4321 36.3643 42.7813 35.844 42.7813Z" fill="black"/>
<path d="M42.7818 42.7812C42.4858 42.7812 42.1898 42.6679 41.9632 42.4436C41.5123 41.9927 41.5123 41.2596 41.9632 40.8087L45.7719 37L41.9655 33.1936C41.5146 32.7427 41.5146 32.0096 41.9655 31.5587C42.4165 31.1077 43.1495 31.1077 43.6005 31.5587L48.2255 36.1837C48.6764 36.6346 48.6764 37.3677 48.2255 37.8186L43.6005 42.4436C43.3738 42.6679 43.0778 42.7812 42.7818 42.7812Z" fill="black"/>
<path d="M31.2193 42.7812C30.9233 42.7812 30.6273 42.6679 30.4007 42.4436L25.7757 37.8186C25.3248 37.3677 25.3248 36.6346 25.7757 36.1837L30.4007 31.5587C30.8516 31.1077 31.5847 31.1077 32.0356 31.5587C32.4866 32.0096 32.4866 32.7427 32.0356 33.1936L28.2293 37L32.0356 40.8063C32.4866 41.2573 32.4866 41.9903 32.0356 42.4413C31.8113 42.6679 31.5153 42.7812 31.2193 42.7812Z" fill="black"/>
</svg>
